# xmcd CD database file
#
# Track frame offsets:
#	150
#	16453
#	30144
#	44489
#	58884
#	73979
#	88146
#	102703
#	117067
#	132073
#	145493
#	160011
#	172684
#	187439
#	202120
#	215646
#	230042
#	244845
#	259676
#	273803
#	288937
#	303985
#
# Disc length: 4231 seconds
#
# Revision: 1
# Processed by: cddbd v1.5.2PL0 Copyright (c) Steve Scherf et al.
# Submitted via: CDex 1.81
#
DISCID=4e108516
DTITLE=Various Artist - JazzPiano History - [CD 03) Blues and Boogie
DYEAR=2006
DGENRE=Jazz
TTITLE0=Lemuel Fowler - Blues Mixture
TTITLE1=Hersal Thomas - Hersal Blues
TTITLE2=Meade Lux Lewis - Honky Tonk Train Blues
TTITLE3=Pinetop Smith - Pine Top's Boogie Woogie
TTITLE4=Pinetop Smith - Jump Steady Blues
TTITLE5=Cow Cow Davenport - Cow Cow Blues
TTITLE6=Cow Cow Davenport - Cow Cow Blues
TTITLE7=Cow Cow Davenport - Chimes Blues
TTITLE8=Montana Taylor - Detroit Rocks
TTITLE9=Romeo Nelson - Head Rag Hop
TTITLE10=Speckled Red - The Dirty Dozen
TTITLE11=Speckled Red - Wilkins Street Stomp
TTITLE12=Westley Wallace - No. 29
TTITLE13=Westley Wallace - Fanny Lee Blues
TTITLE14=Henry Brown - Henry Brown Blues
TTITLE15=Henry Brown - Deep Morgan Blues
TTITLE16=Henry Brown - Eastern Chimes Blues
TTITLE17=Charles Avery - Dearborn Street Breakdown
TTITLE18=Blind Leroy Garnett - Luoisiana Glide
TTITLE19=Jabo Williams - Jab Blues
TTITLE20=Jabo Williams - Pratt City Blues
TTITLE21=Cripple Clarence Lofton - I Don't Know
EXTD=
EXTT0=
EXTT1=
EXTT2=
EXTT3=
EXTT4=
EXTT5=
EXTT6=
EXTT7=
EXTT8=
EXTT9=
EXTT10=
EXTT11=
EXTT12=
EXTT13=
EXTT14=
EXTT15=
EXTT16=
EXTT17=
EXTT18=
EXTT19=
EXTT20=
EXTT21=
PLAYORDER=
